<mxfile host="app.diagrams.net" modified="2021-03-02T20:52:57.032Z" agent="5.0 (Windows NT 10.0; Win64; x64) AppleWebKit/537.36 (KHTML, like Gecko) Chrome/88.0.4324.190 Safari/537.36" etag="B8nwNLdr8WVL9aKOBmuO" version="14.4.3" type="github">
  <diagram id="5ql6mhRRp2vpjZDgXQWx" name="Page-1">
    <mxGraphModel dx="1248" dy="677" grid="1" gridSize="10" guides="1" tooltips="1" connect="1" arrows="1" fold="1" page="1" pageScale="1" pageWidth="827" pageHeight="1169" math="0" shadow="0">
      <root>
        <mxCell id="0" />
        <mxCell id="1" parent="0" />
        <mxCell id="z9pl6Bm3MNAEXi2FQU0A-4" value="" style="edgeStyle=orthogonalEdgeStyle;rounded=0;orthogonalLoop=1;jettySize=auto;html=1;" edge="1" parent="1" source="z9pl6Bm3MNAEXi2FQU0A-1" target="z9pl6Bm3MNAEXi2FQU0A-3">
          <mxGeometry relative="1" as="geometry" />
        </mxCell>
        <mxCell id="z9pl6Bm3MNAEXi2FQU0A-1" value="Inicio" style="ellipse;whiteSpace=wrap;html=1;" vertex="1" parent="1">
          <mxGeometry x="320" y="130" width="120" height="80" as="geometry" />
        </mxCell>
        <mxCell id="z9pl6Bm3MNAEXi2FQU0A-8" value="" style="edgeStyle=orthogonalEdgeStyle;rounded=0;orthogonalLoop=1;jettySize=auto;html=1;" edge="1" parent="1" source="z9pl6Bm3MNAEXi2FQU0A-2" target="z9pl6Bm3MNAEXi2FQU0A-7">
          <mxGeometry relative="1" as="geometry" />
        </mxCell>
        <mxCell id="z9pl6Bm3MNAEXi2FQU0A-2" value="Leer N" style="shape=parallelogram;perimeter=parallelogramPerimeter;whiteSpace=wrap;html=1;fixedSize=1;" vertex="1" parent="1">
          <mxGeometry x="320" y="330" width="120" height="60" as="geometry" />
        </mxCell>
        <mxCell id="z9pl6Bm3MNAEXi2FQU0A-5" value="" style="edgeStyle=orthogonalEdgeStyle;rounded=0;orthogonalLoop=1;jettySize=auto;html=1;" edge="1" parent="1" source="z9pl6Bm3MNAEXi2FQU0A-3" target="z9pl6Bm3MNAEXi2FQU0A-2">
          <mxGeometry relative="1" as="geometry" />
        </mxCell>
        <mxCell id="z9pl6Bm3MNAEXi2FQU0A-3" value="&quot;Introducir N&quot;" style="strokeWidth=1;html=1;shape=mxgraph.flowchart.display;whiteSpace=wrap;" vertex="1" parent="1">
          <mxGeometry x="330" y="240" width="100" height="60" as="geometry" />
        </mxCell>
        <mxCell id="z9pl6Bm3MNAEXi2FQU0A-13" value="" style="edgeStyle=orthogonalEdgeStyle;rounded=0;orthogonalLoop=1;jettySize=auto;html=1;" edge="1" parent="1" source="z9pl6Bm3MNAEXi2FQU0A-7" target="z9pl6Bm3MNAEXi2FQU0A-9">
          <mxGeometry relative="1" as="geometry" />
        </mxCell>
        <mxCell id="z9pl6Bm3MNAEXi2FQU0A-7" value="N=0" style="rounded=1;whiteSpace=wrap;html=1;strokeWidth=1;" vertex="1" parent="1">
          <mxGeometry x="320" y="420" width="120" height="60" as="geometry" />
        </mxCell>
        <mxCell id="z9pl6Bm3MNAEXi2FQU0A-14" value="" style="edgeStyle=orthogonalEdgeStyle;rounded=0;orthogonalLoop=1;jettySize=auto;html=1;" edge="1" parent="1" source="z9pl6Bm3MNAEXi2FQU0A-9">
          <mxGeometry relative="1" as="geometry">
            <mxPoint x="380" y="610" as="targetPoint" />
          </mxGeometry>
        </mxCell>
        <mxCell id="z9pl6Bm3MNAEXi2FQU0A-9" value="N=N+1" style="rounded=1;whiteSpace=wrap;html=1;strokeWidth=1;" vertex="1" parent="1">
          <mxGeometry x="320" y="510" width="120" height="60" as="geometry" />
        </mxCell>
        <mxCell id="z9pl6Bm3MNAEXi2FQU0A-10" value="N&amp;gt;100" style="rhombus;whiteSpace=wrap;html=1;strokeWidth=1;" vertex="1" parent="1">
          <mxGeometry x="340" y="710" width="80" height="80" as="geometry" />
        </mxCell>
        <mxCell id="z9pl6Bm3MNAEXi2FQU0A-17" value="" style="edgeStyle=orthogonalEdgeStyle;rounded=0;orthogonalLoop=1;jettySize=auto;html=1;" edge="1" parent="1" source="z9pl6Bm3MNAEXi2FQU0A-11" target="z9pl6Bm3MNAEXi2FQU0A-10">
          <mxGeometry relative="1" as="geometry" />
        </mxCell>
        <mxCell id="z9pl6Bm3MNAEXi2FQU0A-11" value="Imprimir N" style="strokeWidth=1;html=1;shape=mxgraph.flowchart.display;whiteSpace=wrap;" vertex="1" parent="1">
          <mxGeometry x="330" y="610" width="100" height="60" as="geometry" />
        </mxCell>
        <mxCell id="z9pl6Bm3MNAEXi2FQU0A-12" value="" style="endArrow=classic;html=1;exitX=1;exitY=0.5;exitDx=0;exitDy=0;entryX=1;entryY=0.5;entryDx=0;entryDy=0;" edge="1" parent="1" source="z9pl6Bm3MNAEXi2FQU0A-10" target="z9pl6Bm3MNAEXi2FQU0A-9">
          <mxGeometry width="50" height="50" relative="1" as="geometry">
            <mxPoint x="270" y="570" as="sourcePoint" />
            <mxPoint x="320" y="520" as="targetPoint" />
            <Array as="points">
              <mxPoint x="620" y="750" />
              <mxPoint x="620" y="540" />
            </Array>
          </mxGeometry>
        </mxCell>
        <mxCell id="z9pl6Bm3MNAEXi2FQU0A-15" value="" style="endArrow=classic;html=1;exitX=0;exitY=0.5;exitDx=0;exitDy=0;entryX=0.5;entryY=0;entryDx=0;entryDy=0;" edge="1" parent="1" source="z9pl6Bm3MNAEXi2FQU0A-10" target="z9pl6Bm3MNAEXi2FQU0A-16">
          <mxGeometry width="50" height="50" relative="1" as="geometry">
            <mxPoint x="270" y="680" as="sourcePoint" />
            <mxPoint x="190" y="780" as="targetPoint" />
            <Array as="points">
              <mxPoint x="250" y="750" />
            </Array>
          </mxGeometry>
        </mxCell>
        <mxCell id="z9pl6Bm3MNAEXi2FQU0A-16" value="Fin" style="ellipse;whiteSpace=wrap;html=1;strokeWidth=1;" vertex="1" parent="1">
          <mxGeometry x="190" y="820" width="120" height="80" as="geometry" />
        </mxCell>
        <mxCell id="z9pl6Bm3MNAEXi2FQU0A-18" value="No" style="text;html=1;strokeColor=none;fillColor=none;align=center;verticalAlign=middle;whiteSpace=wrap;rounded=0;" vertex="1" parent="1">
          <mxGeometry x="470" y="720" width="40" height="20" as="geometry" />
        </mxCell>
        <mxCell id="z9pl6Bm3MNAEXi2FQU0A-19" value="Si" style="text;html=1;strokeColor=none;fillColor=none;align=center;verticalAlign=middle;whiteSpace=wrap;rounded=0;" vertex="1" parent="1">
          <mxGeometry x="270" y="720" width="40" height="20" as="geometry" />
        </mxCell>
        <mxCell id="z9pl6Bm3MNAEXi2FQU0A-20" value="&lt;h1&gt;GRUPO 5&lt;/h1&gt;&lt;p&gt;Elvia Kellert&lt;/p&gt;&lt;p&gt;Natalie Murillo&lt;/p&gt;&lt;p&gt;Cristian Cevallos&amp;nbsp;&lt;/p&gt;" style="text;html=1;strokeColor=none;fillColor=none;spacing=5;spacingTop=-20;whiteSpace=wrap;overflow=hidden;rounded=0;" vertex="1" parent="1">
          <mxGeometry x="20" y="20" width="190" height="120" as="geometry" />
        </mxCell>
      </root>
    </mxGraphModel>
  </diagram>
</mxfile>
